PathFileType	4	(X/Y/Z)	path1_08_0-572.trc
DataRate	CameraRate	NumFrames	NumMarkers	Units	OrigDataRate	OrigDataStartFrame	OrigNumFrames
30	30	6	22	m	30	500	572
Frame#	Time	Hip			RHip			RKnee			RAnkle			RBigToe			RSmallToe			RHeel			LHip			LKnee			LAnkle			LBigToe			LSmallToe			LHeel			Neck			Head			Nose			RShoulder			RElbow			RWrist			LShoulder			LElbow			LWrist		
		X1	Y1	Z1	X2	Y2	Z2	X3	Y3	Z3	X4	Y4	Z4	X5	Y5	Z5	X6	Y6	Z6	X7	Y7	Z7	X8	Y8	Z8	X9	Y9	Z9	X10	Y10	Z10	X11	Y11	Z11	X12	Y12	Z12	X13	Y13	Z13	X14	Y14	Z14	X15	Y15	Z15	X16	Y16	Z16	X17	Y17	Z17	X18	Y18	Z18	X19	Y19	Z19	X20	Y20	Z20	X21	Y21	Z21	X22	Y22	Z22
501	16.7	-2.2320965982677956	0.8014935333295773	1.0400771045004376	-2.253242880067553	0.7644372199745323	0.9555879310858519	-2.253565830360068	0.428229458420967	0.9491948766402429	-2.252838543536636	0.04922748809349549	0.9642555534598033	-2.465461404415996	-0.04303206713592592	0.9629054336321373	-2.401845500933427	-0.060057758264560765	0.9404197815361187	-2.208503032498942	-0.011172269502179064	0.9636423030135424	-2.229097714347153	0.7636549053899796	1.1262547047418476	-2.25177657396119	0.42183250896004604	1.133606955163768	-2.021509150735679	0.18382878061336375	1.1129731982418438	-2.061306725640522	-0.0083138631997298	1.1534562329168505	-2.035820470245934	0.01574532912439846	1.1900389365622	-1.9314086081378865	0.15944263271483972	1.0966468059712833	-2.184965356769155	1.4346107085747124	1.0375192824753754	-2.3887027145535984	1.6839638717318604	1.0037791961612437	-2.4202132635802114	1.5194902717956034	1.0298766486622666	-2.141638526257693	1.3333791904118037	0.8647864301954402	-2.1156595629746255	1.050969081290363	0.8243777317537021	-2.1780224462996998	0.798772496096542	0.814095814280626	-2.169337558515674	1.3144667198394633	1.2232677376671641	-2.2119298333667987	1.046168233618174	1.2727067401247445	-2.289129076681161	0.8182545882836885	1.291951268042668
502	16.733333333333334	-2.2508157168858665	0.8034723956603156	1.037576842577429	-2.2684049694024946	0.7672407357195288	0.9528457233579863	-2.2586473882187215	0.4311803578238831	0.9480849913627399	-2.2529593767533527	0.053883224855115805	0.963855606616046	-2.46425038462386	-0.04155625904169004	0.9611548297051141	-2.3995606675119903	-0.0543371016367512	0.9350234209653604	-2.207966807487027	-0.006585975901551003	0.9636529788125039	-2.247643937381048	0.766297179212631	1.1241745242541428	-2.268584082722343	0.42582594329895507	1.1330502843357915	-2.061836466256525	0.17308010993209447	1.1164798426556652	-2.11493483318527	-0.0016570367680373832	1.1606659068206402	-2.093415409912535	0.01777539382391462	1.195024270352554	-1.9811916399899152	0.1420912211079364	1.102009673876725	-2.2041001253640147	1.436205367030123	1.0349090931282952	-2.4122677592978854	1.6866693509980646	1.0068347129691315	-2.4460339381553045	1.5255083839577948	1.0285350816686731	-2.163482690684359	1.3355636204687478	0.8610783892614121	-2.137974855416639	1.0525897428546234	0.820172332974436	-2.1987800962144424	0.7998328193314633	0.8111384021691486	-2.1844668803304628	1.317296603527644	1.2203783143504547	-2.225538027638187	1.0494087422902034	1.2690996157343688	-2.2957635040022275	0.8165598705586495	1.2927291462456125
503	16.766666666666666	-2.267448648291423	0.8050359466775533	1.0358178940178988	-2.2814280026743954	0.7688963662074023	0.950341141781055	-2.2629225614437942	0.4337645152934402	0.9475444425186854	-2.2534680798988553	0.0580096486766093	0.9634752905195036	-2.4598709817167608	-0.03903535889751694	0.959793724675043	-2.397032412187476	-0.04853277721540878	0.927815365135719	-2.2092919991295252	-0.003565010801141795	0.9654119725732067	-2.2636548690484033	0.7680940527680891	1.1223160809107298	-2.2787003270242066	0.42868009010544744	1.1319156038984572	-2.100375911499164	0.1562588471471195	1.120463038071807	-2.1790642294815084	0.002754709806328785	1.1645508002594682	-2.16188280664907	0.015138018989349184	1.196176497611972	-2.030662071170251	0.1168902897818713	1.1086817641571098	-2.2212988378048535	1.4378317965237917	1.0329604938526387	-2.432664523274104	1.687894494359834	1.0041447233579956	-2.4708607322778167	1.5307991162260786	1.0283245531311596	-2.1833887533383205	1.3377196537244622	0.8578415119942411	-2.1584226363309478	1.0544171106055626	0.8165998659814699	-2.2164903066076036	0.801783487039301	0.8088476070374363	-2.1982379434744392	1.3201793472294825	1.2177779495671992	-2.2348034451998435	1.0522333693048842	1.2663779859938737	-2.3017078519759573	0.8161383612487532	1.2927102773114114
504	16.8	-2.2820921700047556	0.8060732100161893	1.034813737832004	-2.2926167676656553	0.7691454427317973	0.9483755330548834	-2.2670717734271237	0.43540480578601454	0.9474316288443271	-2.254450317847832	0.06097813799481207	0.9631196026059792	-2.452703525004735	-0.03543975819715179	0.958211381844724	-2.3945707455574654	-0.0432748960174119	0.9190121432930727	-2.211602310952935	-0.0023811126240389003	0.968376038869148	-2.2773936399069803	0.7688182997720203	1.1206457435024597	-2.2863307730769904	0.4293954839178422	1.130465640710486	-2.1369668768527252	0.1363511290226437	1.124416598779946	-2.248030638530916	0.0043110046549981	1.165129636980611	-2.2352135637720023	0.008086336343032493	1.1940321934876532	-2.077199369203625	0.08854167343179649	1.11571856831785	-2.2364440610590512	1.439376978841104	1.0314726121200868	-2.4505732458385445	1.6878300280473346	0.9983913140006271	-2.4922405769220863	1.5335941091576957	1.0292878666551497	-2.200947279692969	1.3395392721924324	0.8551294638714826	-2.176697431892065	1.0560899249630324	0.813738596893401	-2.231188473131829	0.8042944321816802	0.807352440878996	-2.2107957172026222	1.3228422409329126	1.2154268776295776	-2.2411264323273588	1.0543842048930023	1.264306641563782	-2.3043138799891674	0.8167187348452579	1.292001399937829
505	16.833333333333332	-2.2951077218717377	0.8064663169443959	1.034590587765386	-2.302497586630284	0.7681430537719992	0.9473359878002348	-2.2716394743846013	0.43599292931575334	0.9475433701617323	-2.2557403261508577	0.06282087809269102	0.9626864373449301	-2.4450832238558604	-0.03146051867480178	0.9562445159378554	-2.3925801815627334	-0.03902395929890751	0.909734758007092	-2.2141271726770024	-0.0026534359369466054	0.9718161081952288	-2.2891899233172257	0.7685031808564611	1.1193575523808916	-2.2936340773786568	0.4279262820320337	1.1289411314780982	-2.170213817282829	0.11665315645995365	1.1275722944081754	-2.3160046100273286	0.0025737309310195624	1.1631594589525691	-2.306488312488846	-0.002362284363991058	1.1897614537588515	-2.1191597754975544	0.06108498164468542	1.1219756576228577	-2.24964471310719	1.4406955407121402	1.0304514704400562	-2.4661901125319976	1.6869767937004008	0.9920799483642541	-2.509069291779528	1.5335059646990514	1.0313858336596204	-2.2160315747473818	1.3407171158657287	0.8530676316451283	-2.1924677318078594	1.0572785576666672	0.8117592087645685	-2.243003129721872	0.8068196069084071	0.8067096330224443	-2.2222682491460386	1.3250118692795796	1.2134706615008504	-2.2459590658773014	1.055830044450997	1.2626654664211534	-2.303453181952017	0.8178141045657574	1.2909562333818831
506	16.866666666666667	-2.3068603325905905	0.8061740344401422	1.0351876634492954	-2.3116351458155657	0.7664147632959648	0.9474519650744143	-2.27683486314647	0.43578733901799527	0.9477001366684705	-2.2570494883566607	0.06381905697045599	0.962129725115593	-2.4392320655246102	-0.028090998046333977	0.9543270914616608	-2.391346095288346	-0.03602124083518363	0.9015481936877052	-2.21624723704859	-0.00375099031820898	0.9751057241356971	-2.2994576552864037	0.7674567329653289	1.1187466069613015	-2.3010275312279433	0.42488943202958296	1.1276230585990055	-2.1983115572930485	0.0996692454017439	1.129352404042695	-2.377685381813087	-0.00241843554849011	1.159658201448026	-2.367854372123479	-0.014174939381931657	1.1848079490649492	-2.1556344433588897	0.036935409842190625	1.1265510386345932	-2.261160766988616	1.441624895284343	1.0301205705871248	-2.479212513853005	1.6860113746899277	0.9872399822644033	-2.5208294738750316	1.5309978229012422	1.0338754320241417	-2.228755619515678	1.3411690924443385	0.8518629749073567	-2.2055440824295993	1.0578704052552175	0.810939242336453	-2.252200945556225	0.8088456069106841	0.8069440493435801	-2.2328811886580215	1.3264596134704465	1.2122495176322168	-2.250385947882396	1.056734617372497	1.2612801206591928	-2.300467805816043	0.8189194510094473	1.2899238559910038
